<svg width="18" height="20" viewBox="0 0 18 20" fill="none" xmlns="http://www.w3.org/2000/svg">
<path fill-rule="evenodd" clip-rule="evenodd" d="M6 5C6 4.20435 6.31607 3.44129 6.87868 2.87868C7.44129 2.31607 8.20435 2 9 2C9.79565 2 10.5587 2.31607 11.1213 2.87868C11.6839 3.44129 12 4.20435 12 5C12 5.79565 11.6839 6.55871 11.1213 7.12132C10.5587 7.68393 9.79565 8 9 8C8.20435 8 7.44129 7.68393 6.87868 7.12132C6.31607 6.55871 6 5.79565 6 5ZM9 1C7.93913 1 6.92172 1.42143 6.17157 2.17157C5.42143 2.92172 5 3.93913 5 5C5 6.06087 5.42143 7.07828 6.17157 7.82843C6.92172 8.57857 7.93913 9 9 9C10.0609 9 11.0783 8.57857 11.8284 7.82843C12.5786 7.07828 13 6.06087 13 5C13 3.93913 12.5786 2.92172 11.8284 2.17157C11.0783 1.42143 10.0609 1 9 1ZM14.58 13.15C15.7 13.97 16.41 15.39 16.49 18H1.51C1.59 15.4 2.3 13.97 3.41 13.15C4.66 12.25 6.5 12 9 12C11.5 12 13.35 12.26 14.58 13.15ZM9 11C6.5 11 4.35 11.24 2.83 12.35C1.27 13.48 0.5 15.43 0.5 18.5V19H17.5V18.5C17.5 15.43 16.73 13.48 15.17 12.35C13.65 11.25 11.5 11 9 11Z" fill="black"/>
</svg>
